<svg height="512" viewBox="0 0 256 256" width="512" xmlns="http://www.w3.org/2000/svg"><path d="m76.474 113.02a2.5 2.5 0 0 1 -2.308-3.461l10.013-24.069a2.5 2.5 0 0 1 4.621 1.92l-10.017 24.069a2.5 2.5 0 0 1 -2.309 1.541z" fill="#65c1d6"/><path d="m101.429 112.938a2.5 2.5 0 0 1 -1.768-4.268l10.186-10.186-10.186-10.184a2.5 2.5 0 1 1 3.535-3.535l11.953 11.953a2.5 2.5 0 0 1 0 3.535l-11.949 11.952a2.493 2.493 0 0 1 -1.771.733z" fill="#65c1d6"/><path d="m61.534 112.938a2.493 2.493 0 0 1 -1.767-.733l-11.954-11.953a2.5 2.5 0 0 1 0-3.535l11.954-11.953a2.5 2.5 0 1 1 3.533 3.536l-10.184 10.184 10.184 10.186a2.5 2.5 0 0 1 -1.768 4.268z" fill="#65c1d6"/><path d="m60.106 135.052h-10.525a2.5 2.5 0 1 1 0-5h10.525a2.5 2.5 0 0 1 0 5z" fill="#65c1d6"/><path d="m60.106 179.162h-10.525a2.5 2.5 0 1 1 0-5h10.525a2.5 2.5 0 0 1 0 5z" fill="#65c1d6"/><g fill="#846f75"><path d="m232.333 28.6h-208.666a2.5 2.5 0 0 0 -2.5 2.5v193.8a2.5 2.5 0 0 0 2.5 2.5h208.666a2.5 2.5 0 0 0 2.5-2.5v-193.8a2.5 2.5 0 0 0 -2.5-2.5zm-2.5 5v21.5h-203.666v-21.5zm-203.666 188.8v-162.3h203.666v162.3z"/><path d="m39 46.6h11a2.5 2.5 0 0 0 0-5h-11a2.5 2.5 0 0 0 0 5z"/><path d="m62.581 46.6h11a2.5 2.5 0 0 0 0-5h-11a2.5 2.5 0 0 0 0 5z"/><path d="m86.162 46.6h11a2.5 2.5 0 0 0 0-5h-11a2.5 2.5 0 0 0 0 5z"/><path d="m205.662 46.6h11a2.5 2.5 0 1 0 0-5h-11a2.5 2.5 0 0 0 0 5z"/><path d="m70.106 135.052h37.333a2.5 2.5 0 0 0 0-5h-37.333a2.5 2.5 0 0 0 0 5z"/><path d="m70.106 179.162h8.667a2.5 2.5 0 0 0 0-5h-8.667a2.5 2.5 0 0 0 0 5z"/><path d="m111.687 174.162h-22.914a2.5 2.5 0 0 0 0 5h22.914a2.5 2.5 0 0 0 0-5z"/><path d="m104.027 188.865h-33.921a2.5 2.5 0 0 0 0 5h33.921a2.5 2.5 0 0 0 0-5z"/><path d="m70.106 149.755h20.833a2.5 2.5 0 0 0 0-5h-20.833a2.5 2.5 0 0 0 0 5z"/><path d="m127.116 144.755h-26.177a2.5 2.5 0 0 0 0 5h26.177a2.5 2.5 0 1 0 0-5z"/><path d="m70.106 164.459h20.833a2.5 2.5 0 0 0 0-5h-20.833a2.5 2.5 0 0 0 0 5z"/><path d="m119.4 159.459h-18.461a2.5 2.5 0 0 0 0 5h18.461a2.5 2.5 0 1 0 0-5z"/></g><path d="m202.192 73.929h-57.1a2.5 2.5 0 0 0 -2.5 2.5v57.1a2.5 2.5 0 0 0 2.5 2.5h57.1a2.5 2.5 0 0 0 2.5-2.5v-57.1a2.5 2.5 0 0 0 -2.5-2.5zm-54.6 8.535 22.516 22.516-22.518 22.52zm3.535-3.535h45.033l-22.516 22.516zm22.517 29.587 22.515 22.515h-45.033zm3.535-3.536 22.515-22.515v45.035z" fill="#65c1d6"/><path d="m217 142.718h-32.5a2.5 2.5 0 0 0 -2.5 2.5v32.5a2.5 2.5 0 0 0 2.5 2.5h32.5a2.5 2.5 0 0 0 2.5-2.5v-32.5a2.5 2.5 0 0 0 -2.5-2.5zm-30 8.535 10.215 10.215-10.215 10.215zm3.535-3.535h20.43l-10.215 10.215zm10.215 17.282 10.215 10.215h-20.43zm3.535-3.535 10.215-10.212v20.43z" fill="#65c1d6"/><path d="m173.206 175.218h-28.116a2.5 2.5 0 0 0 -2.5 2.5v28.115a2.5 2.5 0 0 0 2.5 2.5h28.116a2.5 2.5 0 0 0 2.5-2.5v-28.115a2.5 2.5 0 0 0 -2.5-2.5zm-25.616 8.535 8.023 8.022-8.023 8.025zm3.535-3.535h16.046l-8.023 8.022zm8.023 15.093 8.023 8.022h-16.046zm3.535-3.536 8.023-8.022v16.047z" fill="#65c1d6"/></svg>